<mxfile host="Electron" modified="2024-09-23T18:13:45.910Z" agent="Mozilla/5.0 (Windows NT 10.0; Win64; x64) AppleWebKit/537.36 (KHTML, like Gecko) draw.io/24.2.5 Chrome/120.0.6099.109 Electron/28.1.0 Safari/537.36" etag="R8HMBpOZCR5VGMDpfnRl" version="24.2.5" type="device">
  <diagram id="C5RBs43oDa-KdzZeNtuy" name="Page-1">
    <mxGraphModel dx="221" dy="1223" grid="1" gridSize="10" guides="1" tooltips="1" connect="1" arrows="1" fold="1" page="1" pageScale="1" pageWidth="827" pageHeight="1169" math="0" shadow="0">
      <root>
        <mxCell id="WIyWlLk6GJQsqaUBKTNV-0" />
        <mxCell id="WIyWlLk6GJQsqaUBKTNV-1" parent="WIyWlLk6GJQsqaUBKTNV-0" />
        <mxCell id="YIM583KONvALGsWJV8ko-19" value="T4: Durchführung der Pipeline" style="points=[[0.25,0,0],[0.5,0,0],[0.75,0,0],[1,0.25,0],[1,0.5,0],[1,0.75,0],[0.75,1,0],[0.5,1,0],[0.25,1,0],[0,0.75,0],[0,0.5,0],[0,0.25,0]];shape=mxgraph.bpmn.task;whiteSpace=wrap;rectStyle=rounded;size=10;html=1;container=1;expand=0;collapsible=0;taskMarker=abstract;strokeColor=default;align=left;verticalAlign=top;spacingLeft=5;fontFamily=Helvetica;fontSize=12;fontColor=default;fillColor=default;" parent="WIyWlLk6GJQsqaUBKTNV-1" vertex="1">
          <mxGeometry x="840" y="360" width="760" height="700" as="geometry" />
        </mxCell>
        <mxCell id="fke2xoYTFlwqS61LEhha-67" style="edgeStyle=orthogonalEdgeStyle;rounded=0;orthogonalLoop=1;jettySize=auto;html=1;" parent="WIyWlLk6GJQsqaUBKTNV-1" source="rsZH7y0TYli8b2UmggMa-35" target="rsZH7y0TYli8b2UmggMa-53" edge="1">
          <mxGeometry relative="1" as="geometry" />
        </mxCell>
        <mxCell id="rsZH7y0TYli8b2UmggMa-35" value="" style="points=[[0.145,0.145,0],[0.5,0,0],[0.855,0.145,0],[1,0.5,0],[0.855,0.855,0],[0.5,1,0],[0.145,0.855,0],[0,0.5,0]];shape=mxgraph.bpmn.event;html=1;verticalLabelPosition=bottom;labelBackgroundColor=#ffffff;verticalAlign=top;align=center;perimeter=ellipsePerimeter;outlineConnect=0;aspect=fixed;outline=standard;symbol=general;" parent="WIyWlLk6GJQsqaUBKTNV-1" vertex="1">
          <mxGeometry x="950" y="420" width="40" height="40" as="geometry" />
        </mxCell>
        <mxCell id="rsZH7y0TYli8b2UmggMa-58" style="edgeStyle=orthogonalEdgeStyle;rounded=0;orthogonalLoop=1;jettySize=auto;html=1;" parent="WIyWlLk6GJQsqaUBKTNV-1" source="rsZH7y0TYli8b2UmggMa-53" target="rsZH7y0TYli8b2UmggMa-57" edge="1">
          <mxGeometry relative="1" as="geometry" />
        </mxCell>
        <mxCell id="rsZH7y0TYli8b2UmggMa-53" value="T4.1: Überprüfung ob die Konfigurationsdatei für die Pipeline fehlt" style="points=[[0.25,0,0],[0.5,0,0],[0.75,0,0],[1,0.25,0],[1,0.5,0],[1,0.75,0],[0.75,1,0],[0.5,1,0],[0.25,1,0],[0,0.75,0],[0,0.5,0],[0,0.25,0]];shape=mxgraph.bpmn.task;whiteSpace=wrap;rectStyle=rounded;size=10;html=1;container=1;expand=0;collapsible=0;taskMarker=service;" parent="WIyWlLk6GJQsqaUBKTNV-1" vertex="1">
          <mxGeometry x="1030" y="410" width="180" height="60" as="geometry" />
        </mxCell>
        <mxCell id="rsZH7y0TYli8b2UmggMa-57" value="" style="points=[[0.25,0.25,0],[0.5,0,0],[0.75,0.25,0],[1,0.5,0],[0.75,0.75,0],[0.5,1,0],[0.25,0.75,0],[0,0.5,0]];shape=mxgraph.bpmn.gateway2;html=1;verticalLabelPosition=bottom;labelBackgroundColor=#ffffff;verticalAlign=top;align=center;perimeter=rhombusPerimeter;outlineConnect=0;outline=none;symbol=none;" parent="WIyWlLk6GJQsqaUBKTNV-1" vertex="1">
          <mxGeometry x="1270" y="420" width="40" height="40" as="geometry" />
        </mxCell>
        <mxCell id="rsZH7y0TYli8b2UmggMa-59" value="" style="points=[[0.145,0.145,0],[0.5,0,0],[0.855,0.145,0],[1,0.5,0],[0.855,0.855,0],[0.5,1,0],[0.145,0.855,0],[0,0.5,0]];shape=mxgraph.bpmn.event;html=1;verticalLabelPosition=bottom;labelBackgroundColor=#ffffff;verticalAlign=top;align=center;perimeter=ellipsePerimeter;outlineConnect=0;aspect=fixed;outline=end;symbol=error;" parent="WIyWlLk6GJQsqaUBKTNV-1" vertex="1">
          <mxGeometry x="1530" y="420" width="40" height="40" as="geometry" />
        </mxCell>
        <mxCell id="rsZH7y0TYli8b2UmggMa-61" value="Fehlt die Konfigurationsdatei der Pipeline?" style="text;html=1;align=center;verticalAlign=middle;whiteSpace=wrap;rounded=0;" parent="WIyWlLk6GJQsqaUBKTNV-1" vertex="1">
          <mxGeometry x="1220" y="370" width="120" height="45" as="geometry" />
        </mxCell>
        <mxCell id="rsZH7y0TYli8b2UmggMa-68" style="edgeStyle=orthogonalEdgeStyle;rounded=0;orthogonalLoop=1;jettySize=auto;html=1;" parent="WIyWlLk6GJQsqaUBKTNV-1" source="rsZH7y0TYli8b2UmggMa-62" target="rsZH7y0TYli8b2UmggMa-59" edge="1">
          <mxGeometry relative="1" as="geometry" />
        </mxCell>
        <mxCell id="rsZH7y0TYli8b2UmggMa-62" value="T4.2: Meldung der fehlenden Pipeline-konfigurationsdatei" style="points=[[0.25,0,0],[0.5,0,0],[0.75,0,0],[1,0.25,0],[1,0.5,0],[1,0.75,0],[0.75,1,0],[0.5,1,0],[0.25,1,0],[0,0.75,0],[0,0.5,0],[0,0.25,0]];shape=mxgraph.bpmn.task;whiteSpace=wrap;rectStyle=rounded;size=10;html=1;container=1;expand=0;collapsible=0;taskMarker=service;" parent="WIyWlLk6GJQsqaUBKTNV-1" vertex="1">
          <mxGeometry x="1370" y="400" width="120" height="80" as="geometry" />
        </mxCell>
        <mxCell id="rsZH7y0TYli8b2UmggMa-66" value="" style="endArrow=classic;html=1;rounded=0;" parent="WIyWlLk6GJQsqaUBKTNV-1" source="rsZH7y0TYli8b2UmggMa-57" target="rsZH7y0TYli8b2UmggMa-62" edge="1">
          <mxGeometry relative="1" as="geometry">
            <mxPoint x="1152.25" y="550" as="sourcePoint" />
            <mxPoint x="1241.25" y="550" as="targetPoint" />
          </mxGeometry>
        </mxCell>
        <mxCell id="rsZH7y0TYli8b2UmggMa-67" value="Ja" style="edgeLabel;resizable=0;html=1;;align=center;verticalAlign=middle;" parent="rsZH7y0TYli8b2UmggMa-66" connectable="0" vertex="1">
          <mxGeometry relative="1" as="geometry">
            <mxPoint x="-20" y="-10" as="offset" />
          </mxGeometry>
        </mxCell>
        <mxCell id="rsZH7y0TYli8b2UmggMa-85" value="" style="points=[[0.145,0.145,0],[0.5,0,0],[0.855,0.145,0],[1,0.5,0],[0.855,0.855,0],[0.5,1,0],[0.145,0.855,0],[0,0.5,0]];shape=mxgraph.bpmn.event;html=1;verticalLabelPosition=bottom;labelBackgroundColor=#ffffff;verticalAlign=top;align=center;perimeter=ellipsePerimeter;outlineConnect=0;aspect=fixed;outline=end;symbol=error;" parent="WIyWlLk6GJQsqaUBKTNV-1" vertex="1">
          <mxGeometry x="1530" y="775" width="40" height="40" as="geometry" />
        </mxCell>
        <mxCell id="rsZH7y0TYli8b2UmggMa-86" value="Ist die Konfigurationsdatei von dem ArduinoCLIUtilizer erforderlich und fehlt sie?" style="text;html=1;align=center;verticalAlign=middle;whiteSpace=wrap;rounded=0;" parent="WIyWlLk6GJQsqaUBKTNV-1" vertex="1">
          <mxGeometry x="1215" y="730" width="150" height="45" as="geometry" />
        </mxCell>
        <mxCell id="rsZH7y0TYli8b2UmggMa-87" style="edgeStyle=orthogonalEdgeStyle;rounded=0;orthogonalLoop=1;jettySize=auto;html=1;" parent="WIyWlLk6GJQsqaUBKTNV-1" source="rsZH7y0TYli8b2UmggMa-88" target="rsZH7y0TYli8b2UmggMa-85" edge="1">
          <mxGeometry relative="1" as="geometry" />
        </mxCell>
        <mxCell id="rsZH7y0TYli8b2UmggMa-88" value="T4.7: Meldung der fehlenden ArduinoCLIUtilizer-konfigurationsdatei" style="points=[[0.25,0,0],[0.5,0,0],[0.75,0,0],[1,0.25,0],[1,0.5,0],[1,0.75,0],[0.75,1,0],[0.5,1,0],[0.25,1,0],[0,0.75,0],[0,0.5,0],[0,0.25,0]];shape=mxgraph.bpmn.task;whiteSpace=wrap;rectStyle=rounded;size=10;html=1;container=1;expand=0;collapsible=0;taskMarker=service;" parent="WIyWlLk6GJQsqaUBKTNV-1" vertex="1">
          <mxGeometry x="1370" y="750" width="120" height="90" as="geometry" />
        </mxCell>
        <mxCell id="gLMMSaRrP1zIDHzb1Vu9-1" value="T4.8: Durchführen der Pipelineschritte aus der&lt;br&gt;Liste PipelineSequence in&lt;br&gt;der Konfigurationsdatei für&lt;br&gt;die Pipeline" style="points=[[0.25,0,0],[0.5,0,0],[0.75,0,0],[1,0.25,0],[1,0.5,0],[1,0.75,0],[0.75,1,0],[0.5,1,0],[0.25,1,0],[0,0.75,0],[0,0.5,0],[0,0.25,0]];shape=mxgraph.bpmn.task;whiteSpace=wrap;rectStyle=rounded;size=10;html=1;container=1;expand=0;collapsible=0;taskMarker=abstract;isLoopStandard=1;" parent="WIyWlLk6GJQsqaUBKTNV-1" vertex="1">
          <mxGeometry x="1030" y="910" width="180" height="100" as="geometry" />
        </mxCell>
        <mxCell id="fke2xoYTFlwqS61LEhha-81" style="edgeStyle=orthogonalEdgeStyle;rounded=0;orthogonalLoop=1;jettySize=auto;html=1;" parent="WIyWlLk6GJQsqaUBKTNV-1" source="gLMMSaRrP1zIDHzb1Vu9-3" target="fke2xoYTFlwqS61LEhha-76" edge="1">
          <mxGeometry relative="1" as="geometry" />
        </mxCell>
        <mxCell id="gLMMSaRrP1zIDHzb1Vu9-3" value="T4.4: Überprüfung ob in&lt;br&gt;der Konfigurationsdatei der Pipeline Syntax und Datenfluss korrekt sind" style="points=[[0.25,0,0],[0.5,0,0],[0.75,0,0],[1,0.25,0],[1,0.5,0],[1,0.75,0],[0.75,1,0],[0.5,1,0],[0.25,1,0],[0,0.75,0],[0,0.5,0],[0,0.25,0]];shape=mxgraph.bpmn.task;whiteSpace=wrap;rectStyle=rounded;size=10;html=1;container=1;expand=0;collapsible=0;taskMarker=service;" parent="WIyWlLk6GJQsqaUBKTNV-1" vertex="1">
          <mxGeometry x="1030" y="610" width="180" height="80" as="geometry" />
        </mxCell>
        <mxCell id="gLMMSaRrP1zIDHzb1Vu9-5" value="" style="points=[[0.145,0.145,0],[0.5,0,0],[0.855,0.145,0],[1,0.5,0],[0.855,0.855,0],[0.5,1,0],[0.145,0.855,0],[0,0.5,0]];shape=mxgraph.bpmn.event;html=1;verticalLabelPosition=bottom;labelBackgroundColor=#ffffff;verticalAlign=top;align=center;perimeter=ellipsePerimeter;outlineConnect=0;aspect=fixed;outline=end;symbol=error;" parent="WIyWlLk6GJQsqaUBKTNV-1" vertex="1">
          <mxGeometry x="1530" y="630" width="40" height="40" as="geometry" />
        </mxCell>
        <mxCell id="gLMMSaRrP1zIDHzb1Vu9-6" value="Wurde ein Fehler gefunden?" style="text;html=1;align=center;verticalAlign=middle;whiteSpace=wrap;rounded=0;" parent="WIyWlLk6GJQsqaUBKTNV-1" vertex="1">
          <mxGeometry x="1230" y="590" width="120" height="35" as="geometry" />
        </mxCell>
        <mxCell id="gLMMSaRrP1zIDHzb1Vu9-7" style="edgeStyle=orthogonalEdgeStyle;rounded=0;orthogonalLoop=1;jettySize=auto;html=1;" parent="WIyWlLk6GJQsqaUBKTNV-1" source="gLMMSaRrP1zIDHzb1Vu9-8" target="gLMMSaRrP1zIDHzb1Vu9-5" edge="1">
          <mxGeometry relative="1" as="geometry" />
        </mxCell>
        <mxCell id="gLMMSaRrP1zIDHzb1Vu9-8" value="T4.5: Meldung des Fehlers" style="points=[[0.25,0,0],[0.5,0,0],[0.75,0,0],[1,0.25,0],[1,0.5,0],[1,0.75,0],[0.75,1,0],[0.5,1,0],[0.25,1,0],[0,0.75,0],[0,0.5,0],[0,0.25,0]];shape=mxgraph.bpmn.task;whiteSpace=wrap;rectStyle=rounded;size=10;html=1;container=1;expand=0;collapsible=0;taskMarker=service;" parent="WIyWlLk6GJQsqaUBKTNV-1" vertex="1">
          <mxGeometry x="1370" y="610" width="120" height="80" as="geometry" />
        </mxCell>
        <mxCell id="gLMMSaRrP1zIDHzb1Vu9-15" value="" style="points=[[0.145,0.145,0],[0.5,0,0],[0.855,0.145,0],[1,0.5,0],[0.855,0.855,0],[0.5,1,0],[0.145,0.855,0],[0,0.5,0]];shape=mxgraph.bpmn.event;html=1;verticalLabelPosition=bottom;labelBackgroundColor=#ffffff;verticalAlign=top;align=center;perimeter=ellipsePerimeter;outlineConnect=0;aspect=fixed;outline=end;symbol=error;" parent="WIyWlLk6GJQsqaUBKTNV-1" vertex="1">
          <mxGeometry x="1530" y="930" width="40" height="40" as="geometry" />
        </mxCell>
        <mxCell id="gLMMSaRrP1zIDHzb1Vu9-16" style="edgeStyle=orthogonalEdgeStyle;rounded=0;orthogonalLoop=1;jettySize=auto;html=1;" parent="WIyWlLk6GJQsqaUBKTNV-1" source="gLMMSaRrP1zIDHzb1Vu9-17" target="gLMMSaRrP1zIDHzb1Vu9-15" edge="1">
          <mxGeometry relative="1" as="geometry" />
        </mxCell>
        <mxCell id="gLMMSaRrP1zIDHzb1Vu9-17" value="T4.9: Meldung des Fehlers oder Abbruchgrundes" style="points=[[0.25,0,0],[0.5,0,0],[0.75,0,0],[1,0.25,0],[1,0.5,0],[1,0.75,0],[0.75,1,0],[0.5,1,0],[0.25,1,0],[0,0.75,0],[0,0.5,0],[0,0.25,0]];shape=mxgraph.bpmn.task;whiteSpace=wrap;rectStyle=rounded;size=10;html=1;container=1;expand=0;collapsible=0;taskMarker=service;" parent="WIyWlLk6GJQsqaUBKTNV-1" vertex="1">
          <mxGeometry x="1370" y="910" width="120" height="80" as="geometry" />
        </mxCell>
        <mxCell id="gLMMSaRrP1zIDHzb1Vu9-20" value="" style="points=[[0.145,0.145,0],[0.5,0,0],[0.855,0.145,0],[1,0.5,0],[0.855,0.855,0],[0.5,1,0],[0.145,0.855,0],[0,0.5,0]];shape=mxgraph.bpmn.event;html=1;verticalLabelPosition=bottom;labelBackgroundColor=#ffffff;verticalAlign=top;align=center;perimeter=ellipsePerimeter;outlineConnect=0;aspect=fixed;outline=end;symbol=terminate2;" parent="WIyWlLk6GJQsqaUBKTNV-1" vertex="1">
          <mxGeometry x="1270" y="1010" width="40" height="40" as="geometry" />
        </mxCell>
        <mxCell id="fke2xoYTFlwqS61LEhha-65" value="" style="endArrow=classic;html=1;rounded=0;entryX=1;entryY=0.5;entryDx=0;entryDy=0;entryPerimeter=0;" parent="WIyWlLk6GJQsqaUBKTNV-1" source="rsZH7y0TYli8b2UmggMa-57" target="5cSg4u7vludnSG7BBORq-0" edge="1">
          <mxGeometry relative="1" as="geometry">
            <mxPoint x="1300" y="450" as="sourcePoint" />
            <mxPoint x="1140" y="500" as="targetPoint" />
            <Array as="points">
              <mxPoint x="1290" y="540" />
            </Array>
          </mxGeometry>
        </mxCell>
        <mxCell id="fke2xoYTFlwqS61LEhha-66" value="Nein" style="edgeLabel;resizable=0;html=1;;align=center;verticalAlign=middle;" parent="fke2xoYTFlwqS61LEhha-65" connectable="0" vertex="1">
          <mxGeometry relative="1" as="geometry">
            <mxPoint x="-20" y="-70" as="offset" />
          </mxGeometry>
        </mxCell>
        <mxCell id="fke2xoYTFlwqS61LEhha-69" value="" style="points=[[0.25,0.25,0],[0.5,0,0],[0.75,0.25,0],[1,0.5,0],[0.75,0.75,0],[0.5,1,0],[0.25,0.75,0],[0,0.5,0]];shape=mxgraph.bpmn.gateway2;html=1;verticalLabelPosition=bottom;labelBackgroundColor=#ffffff;verticalAlign=top;align=center;perimeter=rhombusPerimeter;outlineConnect=0;outline=none;symbol=none;" parent="WIyWlLk6GJQsqaUBKTNV-1" vertex="1">
          <mxGeometry x="1270" y="775" width="40" height="40" as="geometry" />
        </mxCell>
        <mxCell id="fke2xoYTFlwqS61LEhha-70" value="" style="endArrow=classic;html=1;rounded=0;" parent="WIyWlLk6GJQsqaUBKTNV-1" source="fke2xoYTFlwqS61LEhha-69" target="rsZH7y0TYli8b2UmggMa-88" edge="1">
          <mxGeometry relative="1" as="geometry">
            <mxPoint x="1152.25" y="900" as="sourcePoint" />
            <mxPoint x="1370" y="790" as="targetPoint" />
          </mxGeometry>
        </mxCell>
        <mxCell id="fke2xoYTFlwqS61LEhha-71" value="Ja" style="edgeLabel;resizable=0;html=1;;align=center;verticalAlign=middle;" parent="fke2xoYTFlwqS61LEhha-70" connectable="0" vertex="1">
          <mxGeometry relative="1" as="geometry">
            <mxPoint x="-20" y="-10" as="offset" />
          </mxGeometry>
        </mxCell>
        <mxCell id="fke2xoYTFlwqS61LEhha-76" value="" style="points=[[0.25,0.25,0],[0.5,0,0],[0.75,0.25,0],[1,0.5,0],[0.75,0.75,0],[0.5,1,0],[0.25,0.75,0],[0,0.5,0]];shape=mxgraph.bpmn.gateway2;html=1;verticalLabelPosition=bottom;labelBackgroundColor=#ffffff;verticalAlign=top;align=center;perimeter=rhombusPerimeter;outlineConnect=0;outline=none;symbol=none;" parent="WIyWlLk6GJQsqaUBKTNV-1" vertex="1">
          <mxGeometry x="1270" y="630" width="40" height="40" as="geometry" />
        </mxCell>
        <mxCell id="fke2xoYTFlwqS61LEhha-77" value="" style="endArrow=classic;html=1;rounded=0;" parent="WIyWlLk6GJQsqaUBKTNV-1" source="fke2xoYTFlwqS61LEhha-76" edge="1">
          <mxGeometry relative="1" as="geometry">
            <mxPoint x="1152.25" y="765" as="sourcePoint" />
            <mxPoint x="1370" y="650" as="targetPoint" />
          </mxGeometry>
        </mxCell>
        <mxCell id="fke2xoYTFlwqS61LEhha-78" value="Ja" style="edgeLabel;resizable=0;html=1;;align=center;verticalAlign=middle;" parent="fke2xoYTFlwqS61LEhha-77" connectable="0" vertex="1">
          <mxGeometry relative="1" as="geometry">
            <mxPoint x="-20" y="-10" as="offset" />
          </mxGeometry>
        </mxCell>
        <mxCell id="fke2xoYTFlwqS61LEhha-79" value="" style="endArrow=classic;html=1;rounded=0;entryX=0.5;entryY=0;entryDx=0;entryDy=0;entryPerimeter=0;" parent="WIyWlLk6GJQsqaUBKTNV-1" source="fke2xoYTFlwqS61LEhha-76" edge="1">
          <mxGeometry relative="1" as="geometry">
            <mxPoint x="1300" y="685" as="sourcePoint" />
            <mxPoint x="1120" y="760" as="targetPoint" />
            <Array as="points">
              <mxPoint x="1290" y="720" />
              <mxPoint x="1120" y="720" />
            </Array>
          </mxGeometry>
        </mxCell>
        <mxCell id="fke2xoYTFlwqS61LEhha-80" value="Nein" style="edgeLabel;resizable=0;html=1;;align=center;verticalAlign=middle;" parent="fke2xoYTFlwqS61LEhha-79" connectable="0" vertex="1">
          <mxGeometry relative="1" as="geometry">
            <mxPoint x="60" y="-37" as="offset" />
          </mxGeometry>
        </mxCell>
        <mxCell id="fke2xoYTFlwqS61LEhha-88" value="" style="points=[[0.145,0.145,0],[0.5,0,0],[0.855,0.145,0],[1,0.5,0],[0.855,0.855,0],[0.5,1,0],[0.145,0.855,0],[0,0.5,0]];shape=mxgraph.bpmn.event;html=1;verticalLabelPosition=bottom;labelBackgroundColor=#ffffff;verticalAlign=top;align=center;perimeter=ellipsePerimeter;outlineConnect=0;aspect=fixed;outline=eventInt;symbol=error;" parent="WIyWlLk6GJQsqaUBKTNV-1" vertex="1">
          <mxGeometry x="1200" y="930" width="40" height="40" as="geometry" />
        </mxCell>
        <mxCell id="fke2xoYTFlwqS61LEhha-90" style="edgeStyle=orthogonalEdgeStyle;rounded=0;orthogonalLoop=1;jettySize=auto;html=1;exitX=0.5;exitY=1;exitDx=0;exitDy=0;exitPerimeter=0;entryX=0;entryY=0.5;entryDx=0;entryDy=0;entryPerimeter=0;" parent="WIyWlLk6GJQsqaUBKTNV-1" source="gLMMSaRrP1zIDHzb1Vu9-1" target="gLMMSaRrP1zIDHzb1Vu9-20" edge="1">
          <mxGeometry relative="1" as="geometry" />
        </mxCell>
        <mxCell id="fke2xoYTFlwqS61LEhha-91" style="edgeStyle=orthogonalEdgeStyle;rounded=0;orthogonalLoop=1;jettySize=auto;html=1;exitX=1;exitY=0.5;exitDx=0;exitDy=0;exitPerimeter=0;entryX=0;entryY=0.5;entryDx=0;entryDy=0;entryPerimeter=0;" parent="WIyWlLk6GJQsqaUBKTNV-1" source="fke2xoYTFlwqS61LEhha-88" target="gLMMSaRrP1zIDHzb1Vu9-17" edge="1">
          <mxGeometry relative="1" as="geometry" />
        </mxCell>
        <mxCell id="5cSg4u7vludnSG7BBORq-0" value="T4.3: Lesen der Konfigurationsdatei der Pipeline" style="points=[[0.25,0,0],[0.5,0,0],[0.75,0,0],[1,0.25,0],[1,0.5,0],[1,0.75,0],[0.75,1,0],[0.5,1,0],[0.25,1,0],[0,0.75,0],[0,0.5,0],[0,0.25,0]];shape=mxgraph.bpmn.task;whiteSpace=wrap;rectStyle=rounded;size=10;html=1;container=1;expand=0;collapsible=0;taskMarker=service;" parent="WIyWlLk6GJQsqaUBKTNV-1" vertex="1">
          <mxGeometry x="1030" y="510" width="180" height="60" as="geometry" />
        </mxCell>
        <mxCell id="5cSg4u7vludnSG7BBORq-4" style="edgeStyle=orthogonalEdgeStyle;rounded=0;orthogonalLoop=1;jettySize=auto;html=1;" parent="WIyWlLk6GJQsqaUBKTNV-1" source="5cSg4u7vludnSG7BBORq-1" target="fke2xoYTFlwqS61LEhha-69" edge="1">
          <mxGeometry relative="1" as="geometry" />
        </mxCell>
        <mxCell id="5cSg4u7vludnSG7BBORq-1" value="T4.6: Überprüfung ob ArduinoCLIUtilizer verwendet wird und falls ja, ob dessen Konfigurationsdatei fehlt" style="points=[[0.25,0,0],[0.5,0,0],[0.75,0,0],[1,0.25,0],[1,0.5,0],[1,0.75,0],[0.75,1,0],[0.5,1,0],[0.25,1,0],[0,0.75,0],[0,0.5,0],[0,0.25,0]];shape=mxgraph.bpmn.task;whiteSpace=wrap;rectStyle=rounded;size=10;html=1;container=1;expand=0;collapsible=0;taskMarker=service;" parent="WIyWlLk6GJQsqaUBKTNV-1" vertex="1">
          <mxGeometry x="1030" y="760" width="180" height="70" as="geometry" />
        </mxCell>
        <mxCell id="5cSg4u7vludnSG7BBORq-2" value="" style="endArrow=classic;html=1;rounded=0;entryX=0.5;entryY=0;entryDx=0;entryDy=0;entryPerimeter=0;exitX=0.5;exitY=1;exitDx=0;exitDy=0;exitPerimeter=0;" parent="WIyWlLk6GJQsqaUBKTNV-1" source="fke2xoYTFlwqS61LEhha-69" edge="1">
          <mxGeometry relative="1" as="geometry">
            <mxPoint x="1290" y="790" as="sourcePoint" />
            <mxPoint x="1120" y="910" as="targetPoint" />
            <Array as="points">
              <mxPoint x="1290" y="870" />
              <mxPoint x="1120" y="870" />
            </Array>
          </mxGeometry>
        </mxCell>
        <mxCell id="5cSg4u7vludnSG7BBORq-3" value="Nein" style="edgeLabel;resizable=0;html=1;;align=center;verticalAlign=middle;" parent="5cSg4u7vludnSG7BBORq-2" connectable="0" vertex="1">
          <mxGeometry relative="1" as="geometry">
            <mxPoint x="57" y="-40" as="offset" />
          </mxGeometry>
        </mxCell>
        <mxCell id="Qg0PHN_ECKM0FbM2JeUu-27" value="" style="shape=mxgraph.bpmn.data;labelPosition=center;verticalLabelPosition=bottom;align=center;verticalAlign=top;size=15;html=1;" parent="WIyWlLk6GJQsqaUBKTNV-1" vertex="1">
          <mxGeometry x="940" y="795" width="40" height="60" as="geometry" />
        </mxCell>
        <mxCell id="Qg0PHN_ECKM0FbM2JeUu-28" value="&lt;div&gt;Konfigurationsdatei&lt;br&gt;für ArduinoCLIUtilizer&lt;/div&gt;arduinoCLIUtilizerConfig.yaml" style="text;html=1;align=left;verticalAlign=middle;whiteSpace=wrap;rounded=0;" parent="WIyWlLk6GJQsqaUBKTNV-1" vertex="1">
          <mxGeometry x="860" y="855" width="160" height="50" as="geometry" />
        </mxCell>
        <mxCell id="Qg0PHN_ECKM0FbM2JeUu-29" value="" style="endArrow=classic;dashed=1;html=1;dashPattern=1 3;strokeWidth=2;rounded=0;endFill=1;" parent="WIyWlLk6GJQsqaUBKTNV-1" source="5cSg4u7vludnSG7BBORq-1" target="Qg0PHN_ECKM0FbM2JeUu-27" edge="1">
          <mxGeometry width="50" height="50" relative="1" as="geometry">
            <mxPoint x="-200" y="833" as="sourcePoint" />
            <mxPoint x="100" y="933" as="targetPoint" />
          </mxGeometry>
        </mxCell>
        <mxCell id="Qg0PHN_ECKM0FbM2JeUu-30" value="" style="shape=mxgraph.bpmn.data;labelPosition=center;verticalLabelPosition=bottom;align=center;verticalAlign=top;size=15;html=1;" parent="WIyWlLk6GJQsqaUBKTNV-1" vertex="1">
          <mxGeometry x="900" y="505" width="40" height="60" as="geometry" />
        </mxCell>
        <mxCell id="Qg0PHN_ECKM0FbM2JeUu-31" value="&lt;div&gt;Konfigurationsdatei für die Pipeline&lt;/div&gt;pipelineSettings.yaml" style="text;html=1;align=center;verticalAlign=middle;whiteSpace=wrap;rounded=0;" parent="WIyWlLk6GJQsqaUBKTNV-1" vertex="1">
          <mxGeometry x="860" y="565" width="120" height="50" as="geometry" />
        </mxCell>
        <mxCell id="Qg0PHN_ECKM0FbM2JeUu-32" value="" style="endArrow=classic;dashed=1;html=1;dashPattern=1 3;strokeWidth=2;rounded=0;endFill=1;" parent="WIyWlLk6GJQsqaUBKTNV-1" source="rsZH7y0TYli8b2UmggMa-53" target="Qg0PHN_ECKM0FbM2JeUu-30" edge="1">
          <mxGeometry width="50" height="50" relative="1" as="geometry">
            <mxPoint x="1040" y="669" as="sourcePoint" />
            <mxPoint x="990" y="677" as="targetPoint" />
          </mxGeometry>
        </mxCell>
        <mxCell id="Qg0PHN_ECKM0FbM2JeUu-33" value="" style="endArrow=classic;dashed=1;html=1;dashPattern=1 3;strokeWidth=2;rounded=0;endFill=1;" parent="WIyWlLk6GJQsqaUBKTNV-1" source="5cSg4u7vludnSG7BBORq-0" target="Qg0PHN_ECKM0FbM2JeUu-30" edge="1">
          <mxGeometry width="50" height="50" relative="1" as="geometry">
            <mxPoint x="1054" y="480" as="sourcePoint" />
            <mxPoint x="910" y="537" as="targetPoint" />
          </mxGeometry>
        </mxCell>
        <mxCell id="GlWYqouQjwHXQCIl7oih-6" value="" style="shape=mxgraph.bpmn.data;labelPosition=center;verticalLabelPosition=bottom;align=center;verticalAlign=top;size=15;html=1;" parent="WIyWlLk6GJQsqaUBKTNV-1" vertex="1">
          <mxGeometry x="900" y="935" width="40" height="60" as="geometry" />
        </mxCell>
        <mxCell id="GlWYqouQjwHXQCIl7oih-7" value="MUML-Modelle&lt;div&gt;(verschiedene Dateien)&lt;/div&gt;" style="text;html=1;align=center;verticalAlign=middle;whiteSpace=wrap;rounded=0;" parent="WIyWlLk6GJQsqaUBKTNV-1" vertex="1">
          <mxGeometry x="870" y="1020" width="130" height="30" as="geometry" />
        </mxCell>
        <mxCell id="GlWYqouQjwHXQCIl7oih-8" value="" style="shape=mxgraph.bpmn.data;labelPosition=center;verticalLabelPosition=bottom;align=center;verticalAlign=top;size=15;html=1;" parent="WIyWlLk6GJQsqaUBKTNV-1" vertex="1">
          <mxGeometry x="920" y="945" width="40" height="60" as="geometry" />
        </mxCell>
        <mxCell id="GlWYqouQjwHXQCIl7oih-9" value="" style="shape=mxgraph.bpmn.data;labelPosition=center;verticalLabelPosition=bottom;align=center;verticalAlign=top;size=15;html=1;" parent="WIyWlLk6GJQsqaUBKTNV-1" vertex="1">
          <mxGeometry x="940" y="955" width="40" height="60" as="geometry" />
        </mxCell>
        <mxCell id="GlWYqouQjwHXQCIl7oih-10" value="" style="endArrow=classic;dashed=1;html=1;dashPattern=1 3;strokeWidth=2;rounded=0;endFill=1;entryX=0;entryY=0;entryDx=40;entryDy=15;entryPerimeter=0;" parent="WIyWlLk6GJQsqaUBKTNV-1" source="gLMMSaRrP1zIDHzb1Vu9-1" target="GlWYqouQjwHXQCIl7oih-9" edge="1">
          <mxGeometry width="50" height="50" relative="1" as="geometry">
            <mxPoint x="860" y="971" as="sourcePoint" />
            <mxPoint x="960" y="1106" as="targetPoint" />
          </mxGeometry>
        </mxCell>
        <mxCell id="GlWYqouQjwHXQCIl7oih-11" value="" style="endArrow=classic;dashed=1;html=1;dashPattern=1 3;strokeWidth=2;rounded=0;endFill=1;" parent="WIyWlLk6GJQsqaUBKTNV-1" source="gLMMSaRrP1zIDHzb1Vu9-1" target="Qg0PHN_ECKM0FbM2JeUu-27" edge="1">
          <mxGeometry width="50" height="50" relative="1" as="geometry">
            <mxPoint x="1040" y="976" as="sourcePoint" />
            <mxPoint x="990" y="980" as="targetPoint" />
          </mxGeometry>
        </mxCell>
        <mxCell id="A9BztiqM6qLYgkngiKH0-0" value="" style="endArrow=classic;html=1;rounded=0;exitX=0.5;exitY=1;exitDx=0;exitDy=0;exitPerimeter=0;" parent="WIyWlLk6GJQsqaUBKTNV-1" source="5cSg4u7vludnSG7BBORq-0" edge="1">
          <mxGeometry width="50" height="50" relative="1" as="geometry">
            <mxPoint x="1380" y="710" as="sourcePoint" />
            <mxPoint x="1120" y="610" as="targetPoint" />
          </mxGeometry>
        </mxCell>
      </root>
    </mxGraphModel>
  </diagram>
</mxfile>
